<svg xmlns="http://www.w3.org/2000/svg" xmlns:xlink="http://www.w3.org/1999/xlink" viewBox="0 0 125.94 120.72"><defs><linearGradient id="dcf89d03-94ac-4834-b292-e59d19657a2d" x1="91.29" y1="82.83" x2="85.74" y2="51.34" gradientUnits="userSpaceOnUse"><stop offset="0" stop-color="#8deeee"/><stop offset="0.07" stop-color="#8aebed"/><stop offset="0.13" stop-color="#7fe3e8"/><stop offset="0.18" stop-color="#6dd5e1"/><stop offset="0.24" stop-color="#54c1d7"/><stop offset="0.29" stop-color="#34a8c9"/><stop offset="0.3" stop-color="#2ca1c6"/><stop offset="0.39" stop-color="#3388d2"/><stop offset="0.46" stop-color="#3c6f9f"/><stop offset="0.53" stop-color="#435c7a"/><stop offset="0.58" stop-color="#475163"/><stop offset="0.61" stop-color="#484d5b"/><stop offset="0.63" stop-color="#484d5b"/><stop offset="1" stop-color="#484d5b"/></linearGradient><linearGradient id="be32bb08-9b77-4d18-9768-686a8e3ae8bb" x1="152.77" y1="82.99" x2="158.32" y2="51.54" gradientTransform="matrix(-1, 0, 0, 1, 180.45, 0)" xlink:href="#dcf89d03-94ac-4834-b292-e59d19657a2d"/></defs><title>001-改</title><g id="fd8efed5-3b47-4452-bb69-b46bb7f99dba" data-name="face"><rect x="11.63" y="6.42" width="113.37" height="113.37" rx="10" ry="10" style="fill:#fef6de"/></g><g id="12fa34c3-fb9b-45dd-a9ad-d767ab6417a9" data-name="R eye"><path d="M75.27,69.14c0-9.11,6.31-16.5,14.1-16.5s14.1,7.39,14.1,16.5-6.31,16.5-14.1,16.5C75.27,85.64,75.27,78.25,75.27,69.14Z" transform="translate(11.63 6.42)" style="fill:#fff"/><path d="M80.67,68.37c0-8.22,1.47-17.54,7.84-17.4,6.67.15,7.84,9.18,7.84,17.4s-3.51,14.88-7.84,14.88S80.67,76.59,80.67,68.37Z" transform="translate(11.63 6.42)" style="fill:url(#dcf89d03-94ac-4834-b292-e59d19657a2d)"/><ellipse cx="100.04" cy="74.19" rx="3.25" ry="6.24" style="fill:#484d5b"/><g id="c6b16915-b755-4f0c-8b3b-dee859954785" data-name="light"><path d="M83.36,67.29a11.22,11.22,0,0,0,.32,1.56,2.24,2.24,0,0,1,.21.73,2.87,2.87,0,0,1-.19.83l-.08.05a1.15,1.15,0,0,1-.71-.68,1.67,1.67,0,0,1,0-.86,5,5,0,0,1,.38-1.64Z" transform="translate(11.63 6.42)" style="fill:#8deeee"/><path d="M92.06,77.13a1,1,0,0,1-.82-.5.56.56,0,1,1,.89-.46A1,1,0,0,1,92.06,77.13Z" transform="translate(11.63 6.42)" style="fill:#fff"/><path d="M84.69,75.55a8.28,8.28,0,0,0,2.09,2.12,4.67,4.67,0,0,0,2.8.66A2.46,2.46,0,0,1,88,79a3,3,0,0,1-1.74-.46,3.39,3.39,0,0,1-1.19-1.31A3.12,3.12,0,0,1,84.69,75.55Z" transform="translate(11.63 6.42)" style="fill:#fff"/><path d="M82.52,72.94a1.39,1.39,0,0,1,.95-.69,1.38,1.38,0,0,1,1.13.3,1.38,1.38,0,0,1-.95.69A1.39,1.39,0,0,1,82.52,72.94Z" transform="translate(11.63 6.42)" style="fill:#8deeee"/><path d="M92.47,69.72A16.27,16.27,0,0,1,93.95,69a6,6,0,0,1,1.61-.46,2,2,0,0,1-1.23,1.39A1.79,1.79,0,0,1,92.47,69.72Z" transform="translate(11.63 6.42)" style="fill:#8deeee"/><path d="M93.45,62.29a10.17,10.17,0,0,1,.91,2.57,3.94,3.94,0,0,1,.18,1.37A2.77,2.77,0,0,1,94,67.58h-.1a4.38,4.38,0,0,1-.39-1.32,7.62,7.62,0,0,1,0-1.29,18,18,0,0,0-.21-2.63Z" transform="translate(11.63 6.42)" style="fill:#8deeee"/><path d="M93.72,72.55c-.19.39-.39.48-.58.5s-.39-.1-.58-.5c.19-.4.39-.49.58-.5S93.53,72.15,93.72,72.55Z" transform="translate(11.63 6.42)" style="fill:#8deeee"/><path d="M91.38,57a2.44,2.44,0,0,1,4-.92,3.46,3.46,0,0,1-.79,4.62c-1.89,1.28-3.55,1.48-4,.92S90.4,59.17,91.38,57Z" transform="translate(11.63 6.42)" style="fill:#fff;stroke:#8deeee;stroke-miterlimit:10"/></g><g id="bacd5835-401a-43ae-a318-04018aad5a89" data-name="line"><path d="M74.56,65.27c.7.13.94-4.22,4.29-7.5a12.51,12.51,0,0,1,6.75-3.3c5.21-.74,9.23,2.33,11.16,3.8A16.4,16.4,0,0,1,101,62.72c2.41,3.85,2.36,7.69,3,7.64.48,0,.74-2,.79-3a8.73,8.73,0,0,0-.67-3.75,6.72,6.72,0,0,0,4.67-.5,7,7,0,0,0,3.5-5c-.28.37-2,2.68-4.67,2.67a6.05,6.05,0,0,1-3.12-1,10.17,10.17,0,0,1-3.12-3.06,26.47,26.47,0,0,0-6-5.52c-.62-.42-5.81-3.8-11.54-2.71-3.35.64-3.74,2.2-7.08,2.5a12.8,12.8,0,0,1-6.67-1.33,5.55,5.55,0,0,0,2.67,4.17,5.31,5.31,0,0,0,3.92.42,15.68,15.68,0,0,0-1.35,2.47,13.85,13.85,0,0,0-1.07,3.61A13,13,0,0,0,74.56,65.27Z" transform="translate(11.63 6.42)" style="fill:#191b22"/><path d="M77.27,44.7a15.78,15.78,0,0,1,5.58-1.36A19.28,19.28,0,0,1,94,46a15.71,15.71,0,0,1,4.36,3.74c-1.71-.87-3.37-1.67-5.06-2.35a37.07,37.07,0,0,0-10.5-2.52C81,44.74,79.18,44.7,77.27,44.7Z" transform="translate(11.63 6.42)" style="fill:#191b22"/><path d="M99.75,84a4.42,4.42,0,0,0-1.11-.57,3.85,3.85,0,0,0-1-.22c-.33,0-.65.29-.83,0a12.48,12.48,0,0,1-1-1.33l0-.3a1.84,1.84,0,0,1,1.49-1.34c.63-.13,1.1.46,1.51.82a3.69,3.69,0,0,1,1,1.3,3.65,3.65,0,0,1,.29,1.47Z" transform="translate(11.63 6.42)" style="fill:#191b22"/><path d="M95.4,87.21c-.3-.07-.56-.19-.85-.28a7.69,7.69,0,0,1-.77-.35c-.25-.13-.62-.13-.7-.42a1.73,1.73,0,0,1,.07-1.2l.14-.14a1.73,1.73,0,0,1,1.2-.07c.29.08.29.46.42.7a7.69,7.69,0,0,1,.35.77c.09.28.21.54.28.85Z" transform="translate(11.63 6.42)" style="fill:#191b22"/><path d="M90.81,87.72a1.57,1.57,0,0,1-.74-1,1.56,1.56,0,0,1,.24-1.23,1.56,1.56,0,0,1,.74,1A1.57,1.57,0,0,1,90.81,87.72Z" transform="translate(11.63 6.42)" style="fill:#191b22"/></g></g><g id="e3640b54-ff37-4138-b4e2-0b1efd400c6d" data-name="L eye"><path d="M38.17,69.29c0-9.11-6.31-16.5-14.1-16.5S10,60.18,10,69.29s6.31,16.5,14.1,16.5C38.17,85.79,38.17,78.41,38.17,69.29Z" transform="translate(11.63 6.42)" style="fill:#fff"/><path d="M32.77,68.53c0-8.22-1.47-17.54-7.84-17.4-6.67.15-7.84,9.18-7.84,17.4s3.51,14.88,7.84,14.88S32.77,76.75,32.77,68.53Z" transform="translate(11.63 6.42)" style="fill:url(#be32bb08-9b77-4d18-9768-686a8e3ae8bb)"/><ellipse cx="36.66" cy="74.35" rx="3.25" ry="6.24" style="fill:#484d5b"/><g id="deeda4f3-6cbb-489a-81f7-d8124bf39337" data-name="light"><path d="M19.62,67.56a11.23,11.23,0,0,0,.32,1.56,2.24,2.24,0,0,1,.21.73,2.87,2.87,0,0,1-.19.83l-.08.05a1.15,1.15,0,0,1-.71-.68,1.67,1.67,0,0,1,0-.86,5,5,0,0,1,.38-1.64Z" transform="translate(11.63 6.42)" style="fill:#8deeee"/><path d="M28.32,77.4a1,1,0,0,1-.82-.5,1,1,0,0,1,.07-1,1,1,0,0,1,.82.5A1,1,0,0,1,28.32,77.4Z" transform="translate(11.63 6.42)" style="fill:#fff"/><path d="M21,75.81A8.28,8.28,0,0,0,23,77.93a4.67,4.67,0,0,0,2.8.66,2.46,2.46,0,0,1-1.59.65,3,3,0,0,1-1.74-.46,3.39,3.39,0,0,1-1.19-1.31A3.12,3.12,0,0,1,21,75.81Z" transform="translate(11.63 6.42)" style="fill:#fff"/><path d="M18.78,73.21a1.39,1.39,0,0,1,.95-.69,1.38,1.38,0,0,1,1.13.3,1.38,1.38,0,0,1-.95.69A1.39,1.39,0,0,1,18.78,73.21Z" transform="translate(11.63 6.42)" style="fill:#8deeee"/><path d="M28.74,70a16.28,16.28,0,0,1,1.47-.71,6,6,0,0,1,1.61-.46,2,2,0,0,1-1.23,1.39A1.79,1.79,0,0,1,28.74,70Z" transform="translate(11.63 6.42)" style="fill:#8deeee"/><path d="M29.71,62.56a10.17,10.17,0,0,1,.91,2.57,3.94,3.94,0,0,1,.18,1.37,2.77,2.77,0,0,1-.51,1.34h-.1a4.38,4.38,0,0,1-.39-1.32,7.63,7.63,0,0,1,0-1.29,18,18,0,0,0-.21-2.63Z" transform="translate(11.63 6.42)" style="fill:#8deeee"/><path d="M30,72.82c-.19.39-.39.48-.58.5s-.39-.1-.58-.5c.19-.4.39-.49.58-.5S29.79,72.42,30,72.82Z" transform="translate(11.63 6.42)" style="fill:#8deeee"/><path d="M27.65,57.27a2.44,2.44,0,0,1,4-.92A3.46,3.46,0,0,1,30.81,61c-1.89,1.28-3.55,1.48-4,.92S26.67,59.44,27.65,57.27Z" transform="translate(11.63 6.42)" style="fill:#fff;stroke:#8deeee;stroke-miterlimit:10"/></g><g id="9f8e556c-8a37-4259-8275-8ff7f3362cec" data-name="line"><path d="M38.88,65.4c-.7.13-.94-4.22-4.29-7.5a12.51,12.51,0,0,0-6.75-3.3c-5.21-.74-9.23,2.33-11.16,3.8a16.4,16.4,0,0,0-4.21,4.46c-2.41,3.85-2.36,7.69-3,7.64-.48,0-.74-2-.79-3a8.73,8.73,0,0,1,.67-3.75,6.72,6.72,0,0,1-4.67-.5,7,7,0,0,1-3.5-5c.28.37,2,2.68,4.67,2.67a6.05,6.05,0,0,0,3.13-1A10.17,10.17,0,0,0,12,56.84a26.47,26.47,0,0,1,6-5.52c.62-.42,5.81-3.8,11.54-2.71,3.35.64,3.74,2.2,7.08,2.5a12.8,12.8,0,0,0,6.67-1.33,5.55,5.55,0,0,1-2.67,4.17,5.31,5.31,0,0,1-3.92.42,15.68,15.68,0,0,1,1.35,2.47,13.85,13.85,0,0,1,1.07,3.61A13,13,0,0,1,38.88,65.4Z" transform="translate(11.63 6.42)" style="fill:#191b22"/><path d="M36.17,44.84c-1.92,0-3.76,0-5.57.2a37.07,37.07,0,0,0-10.5,2.52C18.42,48.23,16.76,49,15,49.9a15.7,15.7,0,0,1,4.36-3.74,19.28,19.28,0,0,1,11.18-2.68A15.78,15.78,0,0,1,36.17,44.84Z" transform="translate(11.63 6.42)" style="fill:#191b22"/><path d="M13.41,84a3.65,3.65,0,0,1,.29-1.47,3.69,3.69,0,0,1,1-1.3c.41-.36.88-.95,1.51-.82a1.84,1.84,0,0,1,1.49,1.34l0,.3a12.48,12.48,0,0,1-1,1.33c-.19.26-.51-.06-.83,0a3.85,3.85,0,0,0-1,.22,4.42,4.42,0,0,0-1.11.57Z" transform="translate(11.63 6.42)" style="fill:#191b22"/><path d="M17.9,87.2c.07-.3.19-.56.28-.85a7.71,7.71,0,0,1,.35-.77c.13-.25.13-.62.42-.7a1.73,1.73,0,0,1,1.2.07l.14.14a1.73,1.73,0,0,1,.07,1.2c-.08.29-.46.29-.7.42a7.71,7.71,0,0,1-.77.35c-.28.09-.54.21-.85.28Z" transform="translate(11.63 6.42)" style="fill:#191b22"/><path d="M22.63,87.86a.73.73,0,0,1-.27-.46.69.69,0,0,1,.11-.44.5.5,0,0,1,.21-.16,1.92,1.92,0,0,1,.46-.19.72.72,0,0,1,.27.46.69.69,0,0,1-.11.44.51.51,0,0,1-.21.16A1.94,1.94,0,0,1,22.63,87.86Z" transform="translate(11.63 6.42)" style="fill:#191b22"/></g></g><g id="128f6134-9273-428a-8f42-1c3d650d9af0" data-name="browm"><g id="aeebb0d8-aebe-4f73-8465-4a0fdfca627f" data-name="图层 12"><path d="M91.22,37.64a18.28,18.28,0,0,0-9.08-6c-3.81-1-8.8-.84-9.17.5-.23.86,1.49,2,1.69,2.13,2.44,1.61,5,.81,7.81.81A17.4,17.4,0,0,1,91.22,37.64Z" transform="translate(11.63 6.42)" style="fill:#a1a09f;stroke:#191b22;stroke-miterlimit:10;stroke-width:2px"/></g><g id="6ae5eaba-91b2-4cd2-a674-b88545614fe0" data-name="图层 11"><path d="M21.89,37.64a18.28,18.28,0,0,1,9.08-6c3.81-1,8.8-.84,9.17.5.23.86-1.49,2-1.69,2.13-2.44,1.61-5,.81-7.81.81A17.4,17.4,0,0,0,21.89,37.64Z" transform="translate(11.63 6.42)" style="fill:#a1a09f;stroke:#191b22;stroke-miterlimit:10;stroke-width:2px"/></g></g><g id="b6f42550-d368-4b56-9e00-4dc777eaad5e" data-name="hair"><path d="M38.81,9.14a83.71,83.71,0,0,0-10.33,35,85,85,0,0,0-22,8,95.81,95.81,0,0,0,3.8,61.13,10.79,10.79,0,0,1-7-2.55c-4.54-4-3.38-10.3-3.33-10.59Q0,50.07,0,0H105a10.72,10.72,0,0,1,8.31,8.47q0,46.44,0,92.88a11,11,0,0,1-2.62,8.71c-3.87,4.23-9.51,3.28-9.85,3.22A82.36,82.36,0,0,0,106,51a64.63,64.63,0,0,0-23-8.33,44,44,0,0,0-9.5-34.33,69.51,69.51,0,0,1,.67,34.33A57.39,57.39,0,0,0,39,42.14a77.71,77.71,0,0,1-.17-33Z" transform="translate(11.63 6.42)" style="fill:#9c9c9c"/><path d="M71.47,4.47a71.93,71.93,0,0,1,3,19.67A71.8,71.8,0,0,1,73,39.64a59.58,59.58,0,0,0-33-.33,109,109,0,0,1,.83-34.83A81.15,81.15,0,0,0,26.47,41.64,82.26,82.26,0,0,0,7.31,49.31l-1.5,5.33c3.47-1.6,7.3-3.19,11.5-4.67a133.33,133.33,0,0,1,14.33-4.17,66.09,66.09,0,0,1,5-28.83,66.16,66.16,0,0,0,1.67,28.67A47.19,47.19,0,0,1,75.64,46,81.16,81.16,0,0,0,77,24.81,80.85,80.85,0,0,0,74.81,11a74.74,74.74,0,0,1,5,14.67,74.84,74.84,0,0,1,1.83,19.17A44.94,44.94,0,0,1,106,54.14v-5a63.1,63.1,0,0,0-19.83-7.67,60.2,60.2,0,0,0-14.67-37Z" transform="translate(11.63 6.42)" style="fill:#191b22"/><path d="M13.14,24.14C10.24,32,4.23,49.39,2,67.31a84,84,0,0,0-.5,19.33,78.88,78.88,0,0,0,3,15.17l4.83-.17a87.8,87.8,0,0,1-2.83-12c-.8-4.93-1.81-13.77.67-33.33A281.19,281.19,0,0,1,13.14,24.14Z" transform="translate(11.63 6.42)" style="fill:#191b22"/><path d="M99.31,26c3.43,13.6,5.53,25.06,6.85,33.63,1.55,10,1.93,15.29,1.48,21.37a73.73,73.73,0,0,1-4.17,19.5l4.67.83a93.17,93.17,0,0,0,3-27.83,107.66,107.66,0,0,0-3-20A159.57,159.57,0,0,0,99.31,26Z" transform="translate(11.63 6.42)" style="fill:#191b22"/></g><g id="53b407c3-6158-4adc-9054-996747cbb987" data-name="face"><path d="M89.39,113.31a14,14,0,0,1,2.92-9c5-6,13.94-4.72,15.5-4.5a20.12,20.12,0,0,1,5.47,1.61,13.64,13.64,0,0,1-2.52,8.53C106.71,115.26,98,113.31,89.39,113.31Z" transform="translate(11.63 6.42)" style="fill:#fef6de"/><path d="M86.81,113.28a16,16,0,0,1,3.67-10.14c4.1-4.72,10-5.13,12.83-5.33a23.49,23.49,0,0,1,10,1.5v4a21.69,21.69,0,0,0-9.81-.83c-3,.44-6.92,1-9.33,4.33a10.4,10.4,0,0,0-1.83,6.47Z" transform="translate(11.63 6.42)" style="fill:#191b22"/><path d="M23.75,113.28a14,14,0,0,0-2.93-9c-5-6.11-14.14-4.71-15.5-4.5A19.54,19.54,0,0,0,0,101.43a14.45,14.45,0,0,0,3.26,9.23C7.61,115.66,15,113.28,23.75,113.28Z" transform="translate(11.63 6.42)" style="fill:#fef6de"/><path d="M26.47,113.28a16,16,0,0,0-3.67-10.14c-4.1-4.72-10-5.13-12.83-5.33a23.49,23.49,0,0,0-10,1.5v4a21.69,21.69,0,0,1,9.81-.83c3,.44,6.92,1,9.33,4.33A10.4,10.4,0,0,1,21,113.28Z" transform="translate(11.63 6.42)" style="fill:#191b22"/><path d="M41.5,93.34c1.09,0,1.17,2.62,3.34,4a6.42,6.42,0,0,0,4.18.76c4.42-.35,6.81-4.82,7.65-4.84s2.67,4.11,6.71,4.88c1,.19,3.38.64,5.26-.66,2.23-1.54,2.3-4.53,3.2-4.45.58,0,1.12,1.34,1.11,2.51,0,2.87-3.42,5.73-6.68,6.26-3.6.59-7.49-1.57-9.74-5.43-2.54,3.86-6.5,6-10.16,5.43-3.1-.53-6.63-3.17-6.54-5.85C39.87,94.72,40.72,93.35,41.5,93.34Z" transform="translate(11.63 6.42)" style="fill:#cb4042"/></g><g id="dec0bfa6-8153-4db1-a497-a9a785428a4b" data-name="maoqiu"><path d="M97.47,0a17.19,17.19,0,0,0,.42,10.64c.49,1.29,2.65,6.73,8.47,9.13a14.82,14.82,0,0,0,6.92,1c0-6.67,1.89-13.42-2.7-17.64C105.3-1.7,98.12-.15,97.47,0Z" transform="translate(11.63 6.42)" style="fill:#fff"/><path d="M100.81,2.72a9,9,0,0,1-1.62.53,12.64,12.64,0,0,1-1.42.24,12,12,0,0,1-1.44.07,8.9,8.9,0,0,1-1.69-.17,3.13,3.13,0,0,1,1.25-1.34,4.18,4.18,0,0,1,3.41-.36A3.16,3.16,0,0,1,100.81,2.72Z" transform="translate(11.63 6.42)" style="fill:#191b22"/><g id="b3cb27b7-adbd-462f-a2c1-6177dd7d950f" data-name="图层 16"><path d="M99.72,5.56A3.89,3.89,0,0,1,99,7a4.74,4.74,0,0,1-1,1,4.65,4.65,0,0,1-1.29.62,3.85,3.85,0,0,1-1.61.14,3.85,3.85,0,0,1,.73-1.44,4.65,4.65,0,0,1,1-1,4.74,4.74,0,0,1,1.29-.61A3.89,3.89,0,0,1,99.72,5.56Z" transform="translate(11.63 6.42)" style="fill:#191b22"/></g><path d="M99.47,10.89a4,4,0,0,1-.05,1.64,5,5,0,0,1-.54,1.36A4.89,4.89,0,0,1,98,15a4,4,0,0,1-1.41.85,4,4,0,0,1,0-1.65,4.89,4.89,0,0,1,.54-1.36,5,5,0,0,1,.92-1.14A4,4,0,0,1,99.47,10.89Z" transform="translate(11.63 6.42)" style="fill:#191b22"/><path d="M103,15.47a3.11,3.11,0,0,1,.29,1.38A3.31,3.31,0,0,1,103,18a3.25,3.25,0,0,1-.64,1,3.08,3.08,0,0,1-1.17.79,3.08,3.08,0,0,1-.29-1.38,3.25,3.25,0,0,1,.24-1.16,3.31,3.31,0,0,1,.64-1A3.11,3.11,0,0,1,103,15.47Z" transform="translate(11.63 6.42)" style="fill:#191b22"/><path d="M105.64,17.89a3.28,3.28,0,0,1,1.17.87,3.63,3.63,0,0,1,.64,1.07,3.57,3.57,0,0,1,.24,1.22,3.25,3.25,0,0,1-.3,1.43,3.25,3.25,0,0,1-1.17-.87,3.57,3.57,0,0,1-.64-1.07,3.63,3.63,0,0,1-.24-1.22A3.28,3.28,0,0,1,105.64,17.89Z" transform="translate(11.63 6.42)" style="fill:#191b22"/><path d="M111,19.81a2.85,2.85,0,0,1,1.15.66,2.82,2.82,0,0,1,.63.89,2.77,2.77,0,0,1,.24,1.07,2.82,2.82,0,0,1-.28,1.3,2.82,2.82,0,0,1-1.16-.66,2.77,2.77,0,0,1-.63-.89,2.82,2.82,0,0,1-.24-1.07A2.85,2.85,0,0,1,111,19.81Z" transform="translate(11.63 6.42)" style="fill:#191b22"/></g><g id="26ab911b-5be6-42cd-a7a5-ace8b98bc500" data-name="图层 17"><rect x="11.63" y="6.42" width="113.31" height="113.31" rx="10" ry="10" style="fill:none;stroke:#191b22;stroke-miterlimit:10;stroke-width:2px"/></g><g id="87a9629d-d0cf-4f23-8e21-48e427d382df" data-name="logo"><path d="M32.12,8.32c1.26,2.63-7.68,21.39-10.36,22.19-3.4,1-18.94-9.91-21.57-8.95s-4,5-3,8.05c2.29,7,10.87,10.33,10.5,11s-11.64-2.39-16.25-11c-3.13-5.82-2.36-8.86-.29-13.33C-5.37,8.89.3-6.13,2.75-5.39,5.54-4.55,31.17,6.31,32.12,8.32Z" transform="translate(11.63 6.42)" style="fill:#3388d2;stroke:#231815;stroke-linecap:round;stroke-miterlimit:10;stroke-width:2px"/><g id="572d1fc0-7b29-4a0a-999a-d49105b87872" data-name="图层 14"><path d="M.19,14.18C3.08,8.44,7.37,4.17,9,4.78c2.59,1-1.15,12.37-.58,12.47s5.95-8.73,9.3-8.53c1.9.81,2.66,5.8.38,12.56" transform="translate(11.63 6.42)" style="fill:none;stroke:#fff;stroke-linecap:round;stroke-linejoin:round;stroke-width:3px"/></g></g></svg>